#!OML:ASF H:\Pregnant\Project 1\Capture day 1\Session 1\femalepreg.ASF
:FULLY-SPECIFIED
:DEGREES
1145
root -0.363459 15.3314 3.23551 377.154 0.740229 -363.514
lowerback -14.7093 0.201935 -0.799644
upperback -6.79784 0.392479 -0.722933
thorax 1.07139 0.204103 -0.243106
lowerneck -22.4071 -11.9862 -10.6936
upperneck 21.4796 -17.2237 13.8441
head 13.1714 -6.88657 3.7227
rclavicle 1.23743e-014 0
rhumerus -13.9556 17.8604 -77.4036
rradius 53.7288
rwrist -36.8209
rhand -25.6633 -45.6144
rfingers 7.12502
rthumb 0.870895 -75.5924
lclavicle 1.23743e-014 0
lhumerus -10.5039 -24.7171 70.6865
lradius 50.617
lwrist 49.6172
lhand -34.6215 22.6342
lfingers 7.12502
lthumb -7.77943 52.4711
rfemur -15.312 8.80094 22.6206
rtibia 48.4631
rfoot -9.20526 -10.4625
rtoes -34.5575
lfemur -47.3432 -7.08089 -10.7131
ltibia 33.9884
lfoot -1.15413 2.88016
ltoes -38.9912
1146
root -0.332919 15.3399 3.37662 377.161 0.455324 -363.246
lowerback -14.6744 0.1638 -1.77828
upperback -6.79232 0.471448 -0.799937
thorax 1.04923 0.262345 0.240167
lowerneck -22.1864 -12.1579 -11.0613
upperneck 21.3943 -17.3901 13.9635
head 13.1696 -6.98938 3.79372
rclavicle -6.26172e-015 1.90833e-014
rhumerus -14.2956 18.0839 -77.102
rradius 53.617
rwrist -37.1875
rhand -25.5648 -45.3649
rfingers 7.12502
rthumb 0.966098 -75.3425
lclavicle -6.26172e-015 1.90833e-014
lhumerus -10.5578 -24.7624 71.0638
lradius 50.5249
lwrist 49.6001
lhand -34.5866 22.3536
lfingers 7.12502
lthumb -7.74578 52.1918
rfemur -16.5803 8.34893 22.1119
rtibia 50.876
rfoot -7.38867 -9.46122
rtoes -32.0224
lfemur -46.7289 -6.8063 -11.3799
ltibia 34.1524
lfoot -1.78092 3.07681
ltoes -39.3115
1147
root -0.302025 15.3506 3.51585 377.227 0.12835 -362.98
lowerback -14.6912 0.134574 -2.7354
upperback -6.8007 0.559745 -0.865915
thorax 1.03528 0.325075 0.723977
lowerneck -22.0049 -12.3141 -11.4249
upperneck 21.3555 -17.5269 14.0379
head 13.1847 -7.08056 3.85268
rclavicle 3.47873e-016 -1.59028e-015
rhumerus -14.5753 18.3268 -76.7892
rradius 53.4849
rwrist -37.5389
rhand -25.4278 -45.074
rfingers 7.12502
rthumb 1.09843 -75.0509
lclavicle 3.47873e-016 -1.59028e-015
lhumerus -10.5975 -24.8049 71.4202
lradius 50.4364
lwrist 49.6544
lhand -34.5263 22.1247
lfingers 7.12502
lthumb -7.6876 51.965
rfemur -17.9746 7.96408 21.572
rtibia 53.2371
rfoot -5.43227 -8.62223
rtoes -28.4252
lfemur -46.1099 -6.51653 -12.0311
ltibia 34.1988
lfoot -2.33678 3.30145
ltoes -39.6846
1148
root -0.270304 15.3629 3.6548 377.335 -0.269941 -362.724
lowerback -14.7713 0.126302 -3.64743
upperback -6.81255 0.672605 -0.929343
thorax 1.04627 0.398875 1.18888
lowerneck -21.8654 -12.4497 -11.7749
upperneck 21.354 -17.63 14.0763
head 13.2125 -7.15673 3.90225
rclavicle -7.10655e-015 -1.19271e-014
rhumerus -14.7965 18.5775 -76.4798
rradius 53.3444
rwrist -37.8637
rhand -25.2675 -44.7589
rfingers 7.12502
rthumb 1.25319 -74.7349
lclavicle -7.10655e-015 -1.19271e-014
lhumerus -10.618 -24.8565 71.7403
lradius 50.3551
lwrist 49.7732
lhand -34.4552 21.944
lfingers 7.12502
lthumb -7.61895 51.7868
rfemur -19.4444 7.67882 21.0107
rtibia 55.5046
rfoot -3.43315 -7.95655
rtoes -24.0355
lfemur -45.4685 -6.19124 -12.6685
ltibia 34.1574
lfoot -2.83867 3.56597
ltoes -40.1092
1149
root -0.238034 15.3761 3.79336 377.462 -0.720502 -362.477
lowerback -14.8925 0.133266 -4.50922
upperback -6.82385 0.802688 -0.995381
thorax 1.07478 0.479688 1.62564
lowerneck -21.7484 -12.5607 -12.1059
upperneck 21.3709 -17.6976 14.0901
head 13.2421 -7.21702 3.94698
rclavicle -2.03754e-015 3.18055e-015
rhumerus -14.9681 18.8301 -76.1841
rradius 53.2082
rwrist -38.1485
rhand -25.1006 -44.4398
rfingers 7.12502
rthumb 1.4144 -74.4149
lclavicle -2.03754e-015 3.18055e-015
lhumerus -10.6225 -24.9308 72.018
lradius 50.2824
lwrist 49.9345
lhand -34.3958 21.8047
lfingers 7.12502
lthumb -7.5616 51.6495
rfemur -20.9455 7.47755 20.4417
rtibia 57.6585
rfoot -1.54553 -7.44984
rtoes -19.5778
lfemur -44.8029 -5.8513 -13.2921
ltibia 34.0544
lfoot -3.29649 3.87392
ltoes -40.5317
1150
root -0.205566 15.3901 3.9314 377.587 -1.20389 -362.237
lowerback -15.0363 0.148747 -5.32233
upperback -6.82491 0.941542 -1.06244
thorax 1.12163 0.562939 2.03562
lowerneck -21.6497 -12.6458 -12.4162
upperneck 21.3898 -17.727 14.0852
head 13.2659 -7.26029 3.9895
rclavicle 2.48481e-015 1.59028e-014
rhumerus -15.0863 19.0834 -75.9005
rradius 53.087
rwrist -38.3862
rhand -24.9495 -44.1627
rfingers 7.12502
rthumb 1.56037 -74.1367
lclavicle 2.48481e-015 1.59028e-014
lhumerus -10.6025 -25.0286 72.254
lradius 50.2127
lwrist 50.1086
lhand -34.356 21.6961
lfingers 7.12502
lthumb -7.52318 51.5423
rfemur -22.4427 7.34359 19.8751
rtibia 59.696
rfoot 0.0350471 -7.03891
rtoes -15.7431
lfemur -44.1061 -5.52302 -13.898
ltibia 33.9079
lfoot -3.71604 4.22517
ltoes -40.9105
1151
root -0.173462 15.4053 4.0691 377.697 -1.69189 -361.998
lowerback -15.1872 0.165861 -6.08613
upperback -6.81523 1.0797 -1.13777
thorax 1.18054 0.643686 2.40935
lowerneck -21.5578 -12.7042 -12.6962
upperneck 21.3993 -17.7233 14.0728
head 13.2781 -7.28762 4.03176
rclavicle 3.926e-015 3.18055e-015
rhumerus -15.1594 19.3288 -75.641
rradius 52.9849
rwrist -38.5687
rhand -24.8246 -43.9189
rfingers 7.12502
rthumb 1.68101 -73.892
lclavicle 3.926e-015 3.18055e-015
lhumerus -10.5572 -25.1643 72.4422
lradius 50.1438
lwrist 50.2749
lhand -34.3476 21.6333
lfingers 7.12502
lthumb -7.5151 51.4798
rfemur -23.9159 7.24764 19.3188
rtibia 61.6259
rfoot 1.12972 -6.70212
rtoes -13.0001
lfemur -43.3769 -5.2214 -14.4905
ltibia 33.7267
lfoot -4.11238 4.59723
ltoes -41.1978
1152
root -0.142169 15.4216 4.2062 377.786 -2.16136 -361.754
lowerback -15.323 0.178797 -6.80113
upperback -6.80231 1.20765 -1.22661
thorax 1.23358 0.717713 2.73968
lowerneck -21.4619 -12.7367 -12.9329
upperneck 21.4009 -17.6923 14.0488
head 13.276 -7.30154 4.06944
rclavicle 2.36554e-014 -1.35174e-014
rhumerus -15.2068 19.5603 -75.421
rradius 52.9072
rwrist -38.6948
rhand -24.7395 -43.7257
rfingers 7.12502
rthumb 1.76319 -73.6982
lclavicle 2.36554e-014 -1.35174e-014
lhumerus -10.5009 -25.3417 72.5838
lradius 50.0792
lwrist 50.4123
lhand -34.3758 21.6181
lfingers 7.12502
lthumb -7.54232 51.4637
rfemur -25.357 7.16745 18.7755
rtibia 63.4556
rfoot 1.629 -6.44744
rtoes -11.3761
lfemur -42.6177 -4.95787 -15.0724
ltibia 33.5117
lfoot -4.49047 4.96872
ltoes -41.3708
1153
root -0.112244 15.4389 4.34208 377.858 -2.59218 -361.501
lowerback -15.4325 0.181931 -7.47056
upperback -6.78922 1.31688 -1.33328
thorax 1.27339 0.781219 3.02204
lowerneck -21.3558 -12.7439 -13.1228
upperneck 21.388 -17.6392 14.0234
head 13.2575 -7.3033 4.10493
rclavicle -4.17448e-015 1.82882e-014
rhumerus -15.2319 19.7703 -75.2473
rradius 52.8538
rwrist -38.7669
rhand -24.6998 -43.58
rfingers 7.12502
rthumb 1.8015 -73.5522
lclavicle -4.17448e-015 1.82882e-014
lhumerus -10.4309 -25.554 72.6746
lradius 50.0179
lwrist 50.5095
lhand -34.4326 21.6398
lfingers 7.12502
lthumb -7.59711 51.4834
rfemur -26.776 7.08575 18.2464
rtibia 65.1837
rfoot 1.57349 -6.32303
rtoes -10.4482
lfemur -41.8412 -4.73266 -15.6484
ltibia 33.2614
lfoot -4.85759 5.3104
ltoes -41.4124
1154
root -0.0841093 15.457 4.47678 377.913 -2.97463 -361.234
lowerback -15.5121 0.175398 -8.09318
upperback -6.77533 1.40663 -1.46828
thorax 1.30036 0.833798 3.24422
lowerneck -21.2635 -12.7287 -13.2558
upperneck 21.3887 -17.5735 13.9966
head 13.2391 -7.2941 4.13388
rclavicle 8.44835e-015 7.95139e-016
rhumerus -15.2364 19.9367 -75.1336
rradius 52.8191
rwrist -38.7835
rhand -24.7064 -43.4814
rfingers 7.12502
rthumb 1.79514 -73.4536
lclavicle 8.44835e-015 7.95139e-016
lhumerus -10.341 -25.8033 72.7007
lradius 49.9636
lwrist 50.5747
lhand -34.497 21.688
lfingers 7.12502
lthumb -7.65931 51.5293
rfemur -28.1745 6.99266 17.7321
rtibia 66.7923
rfoot 1.04374 -6.34945
rtoes -9.90641
lfemur -41.0536 -4.54646 -16.2231
ltibia 32.9785
lfoot -5.21594 5.60877
ltoes -41.3298
1155
root -0.0582385 15.4755 4.61006 377.957 -3.30389 -360.955
lowerback -15.5587 0.156902 -8.67082
upperback -6.76364 1.47285 -1.63091
thorax 1.31101 0.87385 3.40703
lowerneck -21.2126 -12.6999 -13.2612
upperneck 21.4247 -17.5013 13.8725
head 13.2164 -7.28027 4.106
rclavicle -4.22417e-014 4.29375e-014
rhumerus -15.2281 20.0549 -75.0847
rradius 52.8033
rwrist -38.7454
rhand -24.7555 -43.4242
rfingers 7.12502
rthumb 1.74771 -73.3968
lclavicle -4.22417e-014 4.29375e-014
lhumerus -10.2366 -26.076 72.6603
lradius 49.9223
lwrist 50.619
lhand -34.5684 21.7684
lfingers 7.12502
lthumb -7.72825 51.6071
rfemur -29.562 6.8869 17.2407
rtibia 68.2565
rfoot 0.287848 -6.55089
rtoes -9.52995
lfemur -40.2729 -4.40017 -16.7912
ltibia 32.6738
lfoot -5.56605 5.86311
ltoes -41.1523
1156
root -0.0348583 15.4932 4.74174 377.982 -3.58174 -360.677
lowerback -15.5654 0.131861 -9.19367
upperback -6.74996 1.51991 -1.8197
thorax 1.30697 0.903379 3.507
lowerneck -21.1834 -12.6588 -13.1763
upperneck 21.476 -17.4289 13.7075
head 13.1897 -7.26249 4.04797
rclavicle 1.54555e-014 -1.27222e-014
rhumerus -15.2076 20.1142 -75.1006
rradius 52.8008
rwrist -38.6607
rhand -24.8338 -43.3969
rfingers 7.12502
rthumb 1.67207 -73.3701
lclavicle 1.54555e-014 -1.27222e-014
lhumerus -10.1154 -26.366 72.5504
lradius 49.8966
lwrist 50.6563
lhand -34.6425 21.8701
lfingers 7.12502
lthumb -7.79975 51.7062
rfemur -30.9187 6.77998 16.7927
rtibia 69.5508
rfoot -0.519375 -6.905
rtoes -9.19487
lfemur -39.5035 -4.29202 -17.3372
ltibia 32.3716
lfoot -5.90818 6.08464
ltoes -40.9155
